<?xml version="1.0" standalone="no"?>
<!DOCTYPE svg PUBLIC "-//W3C//DTD SVG 20010904//EN"
 "http://www.w3.org/TR/2001/REC-SVG-20010904/DTD/svg10.dtd">
<svg version="1.0" xmlns="http://www.w3.org/2000/svg"
 width="225.000000pt" height="224.000000pt" viewBox="0 0 225.000000 224.000000"
 preserveAspectRatio="xMidYMid meet">

<g transform="translate(0.000000,224.000000) scale(0.100000,-0.100000)"
fill="#000000" stroke="none">
<path d="M1019 2128 c12 -16 11 -18 -3 -18 -10 0 -26 5 -36 10 -11 6 -38 7
-62 3 l-43 -7 46 -11 c25 -7 69 -25 97 -41 l52 -29 2 -55 2 -55 3 52 c3 39 7
51 18 47 8 -3 48 -45 89 -93 54 -64 72 -91 65 -102 -5 -8 -9 -18 -9 -24 1 -5
6 -1 12 9 10 18 12 17 24 -10 7 -16 13 -23 13 -15 1 7 14 -1 31 -19 25 -27 30
-40 30 -84 0 -39 -3 -47 -11 -36 -9 12 -9 11 -3 -5 4 -11 9 -37 12 -57 2 -21
8 -38 12 -38 5 0 16 -24 26 -52 9 -29 19 -48 21 -42 2 6 -5 32 -17 58 -16 38
-17 50 -8 66 15 23 41 35 46 21 6 -17 44 26 40 45 -2 10 -14 24 -28 31 -13 6
-32 28 -42 47 -10 20 -21 36 -24 36 -2 0 0 -9 6 -19 14 -28 12 -36 -5 -21 -8
7 -15 24 -15 39 1 14 0 100 -1 191 l-3 165 -5 -149 -6 -149 -17 36 c-10 22
-13 39 -8 42 26 16 -8 69 -36 58 -33 -12 -62 18 -90 96 -15 42 -31 81 -36 86
-5 6 2 -20 16 -57 14 -37 23 -77 21 -88 -2 -12 2 -23 10 -26 8 -3 17 -15 21
-26 5 -16 8 -18 15 -7 6 10 11 6 18 -14 15 -38 14 -47 -3 -41 -8 3 -12 13 -9
22 4 13 3 14 -5 4 -7 -10 -18 -3 -45 30 -20 24 -32 45 -26 46 5 2 -13 19 -42
36 -35 23 -47 35 -36 39 8 3 31 -8 51 -25 20 -17 39 -28 41 -26 3 2 -13 18
-35 34 -30 22 -40 36 -40 58 0 26 -2 28 -32 23 -22 -3 -40 1 -53 12 -18 15
-19 15 -6 -1z m29 -58 c2 -6 -14 -2 -37 9 -23 12 -41 23 -41 25 0 9 75 -23 78
-34z m280 -232 c12 -24 22 -52 22 -62 0 -18 -3 -17 -28 7 -16 15 -32 24 -37
20 -4 -5 -5 -2 -1 5 4 7 2 19 -4 27 -14 17 -6 45 12 45 7 0 23 -19 36 -42z
m72 -194 c0 -18 -8 -38 -20 -49 -20 -18 -20 -17 -20 56 l0 74 20 -25 c11 -14
20 -39 20 -56z"/>
<path d="M882 2060 c0 -8 6 -31 13 -50 7 -19 13 -28 13 -20 0 8 -6 31 -13 50
-7 19 -13 28 -13 20z"/>
<path d="M710 2041 c0 -6 4 -13 10 -16 6 -3 7 1 4 9 -7 18 -14 21 -14 7z"/>
<path d="M740 2002 c0 -5 12 -19 27 -33 l26 -24 -23 33 c-25 33 -30 38 -30 24z"/>
<path d="M1604 1989 c-3 -6 -1 -16 5 -22 9 -9 10 -7 5 8 -7 18 -6 19 12 5 18
-14 18 -14 5 3 -16 20 -18 20 -27 6z"/>
<path d="M560 1986 c0 -3 14 -12 30 -21 17 -9 30 -13 30 -11 0 3 -13 12 -30
21 -16 9 -30 13 -30 11z"/>
<path d="M1679 1947 c7 -9 11 -17 7 -17 -4 0 0 -10 8 -22 7 -13 19 -40 26 -62
9 -29 15 -35 22 -25 7 10 8 7 5 -11 -3 -14 -1 -34 4 -45 7 -16 8 -14 4 8 -4
19 -2 26 5 22 5 -3 10 -13 10 -20 0 -9 6 -12 18 -9 13 4 14 4 4 -4 -8 -5 -13
-23 -11 -43 2 -22 -1 -33 -8 -32 -8 2 -9 -5 -3 -25 23 -68 30 -208 18 -334 -7
-71 -16 -128 -20 -128 -4 0 -8 -8 -8 -18 0 -27 -45 -161 -72 -217 -47 -94 -70
-132 -104 -169 -18 -20 -29 -36 -24 -36 5 0 11 4 15 10 7 11 55 -9 55 -23 0
-6 3 -7 6 -4 4 4 1 13 -6 22 -15 18 1 20 19 3 10 -11 11 -10 5 5 -7 19 13 50
27 42 4 -3 6 -12 3 -20 -4 -8 -11 -12 -17 -8 -6 3 -7 1 -3 -5 4 -7 17 -12 29
-12 18 0 19 2 7 10 -11 7 -11 10 -2 10 7 0 11 4 7 9 -8 13 12 24 28 14 12 -8
28 -12 59 -15 12 -2 16 -8 13 -19 -4 -11 2 -23 16 -32 11 -9 18 -20 14 -27 -4
-7 1 -9 18 -5 17 5 26 2 31 -10 9 -24 -3 -38 -30 -32 -14 2 -21 0 -17 -6 4 -6
0 -8 -10 -4 -35 14 -51 17 -29 6 12 -7 22 -16 22 -21 0 -4 -9 -3 -20 4 -15 10
-22 10 -32 0 -10 -10 -10 -15 2 -22 19 -12 -31 -25 -64 -16 -16 4 -26 1 -30
-9 -9 -26 -25 -16 -35 22 -11 37 -7 53 10 53 6 0 8 -4 5 -9 -3 -5 1 -12 10
-15 8 -3 12 -10 9 -16 -3 -5 0 -10 8 -10 8 0 17 9 20 20 4 17 11 19 37 13 25
-4 32 -3 28 7 -7 21 -40 38 -45 23 -6 -15 -59 -17 -68 -3 -4 6 -11 5 -20 -4
-16 -16 -65 -10 -81 10 -10 12 -13 12 -24 -1 -7 -8 -9 -15 -5 -15 4 0 1 -7 -6
-16 -12 -14 -11 -16 6 -12 11 2 19 10 17 17 -1 7 2 10 8 6 8 -5 7 -12 -2 -23
-7 -10 -14 -19 -15 -21 -1 -2 -9 2 -18 9 -10 8 -15 9 -15 1 0 -6 -4 -11 -9
-11 -5 0 -8 12 -5 27 4 23 3 25 -10 13 -9 -7 -13 -16 -10 -21 3 -5 -1 -9 -9
-9 -16 0 -30 -24 -20 -34 4 -3 18 -6 32 -6 l26 1 -25 15 -25 15 30 -6 c17 -2
46 -6 65 -7 43 -2 67 -17 48 -30 -11 -6 -11 -10 0 -17 17 -11 17 -21 0 -32 -9
-6 -10 -9 -1 -9 7 0 10 -7 7 -15 -4 -8 -2 -15 4 -15 5 0 10 27 10 60 0 46 -4
60 -15 60 -9 0 -13 6 -9 15 3 8 1 15 -4 15 -6 0 -10 -4 -10 -10 0 -5 -6 -10
-12 -10 -14 1 29 40 43 40 5 0 5 -7 2 -17 -4 -10 -2 -14 4 -10 10 6 40 -50 35
-65 -1 -5 6 -8 16 -8 27 0 42 -20 42 -57 0 -23 -5 -33 -15 -33 -8 0 -15 7 -15
15 0 8 -5 15 -10 15 -7 0 -7 7 1 21 9 17 8 20 -3 17 -8 -3 -12 -18 -11 -37 l1
-33 -99 4 c-78 2 -98 6 -94 16 3 8 5 22 5 32 0 24 27 50 48 47 31 -5 42 -18
42 -53 0 -19 4 -34 9 -34 4 0 5 19 0 42 -4 24 -8 48 -9 53 0 12 -69 7 -85 -6
-6 -4 -12 -22 -13 -40 -3 -41 -18 -59 -47 -59 -28 0 -42 16 -48 55 -3 24 -4
22 -6 -12 -1 -41 -2 -42 -33 -39 -18 2 -37 4 -43 6 -21 5 -35 -1 -35 -15 0
-21 27 -30 45 -15 10 8 15 9 15 2 0 -6 -4 -14 -10 -17 -5 -3 -10 -11 -10 -17
0 -6 7 -5 16 3 15 12 16 11 9 -11 -9 -31 -16 -38 -22 -22 -7 19 -19 14 -20 -8
-1 -12 4 -20 13 -20 8 0 19 -10 24 -23 7 -18 9 -15 9 21 1 24 7 49 14 56 11
11 12 3 9 -44 -3 -39 0 -60 8 -65 9 -6 11 -4 5 5 -5 8 -4 11 3 7 12 -8 9 -40
-5 -44 -5 -2 -16 3 -22 11 -11 13 -15 14 -27 1 -8 -8 -22 -12 -32 -9 -14 5
-15 4 -2 -5 13 -9 12 -11 -3 -11 -10 0 -15 -4 -12 -10 9 -14 45 -12 41 3 -1 6
-1 9 1 4 3 -4 9 -4 15 -1 6 4 14 0 19 -7 7 -11 11 -11 17 -2 4 7 13 9 21 4 20
-13 -11 -20 -80 -19 -40 0 -56 4 -56 14 0 8 4 14 9 14 4 0 8 5 8 11 0 6 -6 9
-13 6 -7 -3 -14 3 -15 12 -7 62 -21 78 -19 23 1 -22 -1 -38 -6 -35 -4 2 -7 -2
-7 -10 0 -8 -9 -17 -20 -20 -22 -6 -28 8 -7 16 8 3 11 19 9 46 -5 53 -20 54
-18 1 1 -28 -3 -39 -11 -36 -7 3 -15 1 -18 -4 -4 -6 -1 -10 4 -10 6 0 11 -4
11 -9 0 -4 -11 -6 -24 -4 -17 4 -28 -1 -38 -16 -14 -23 -47 -29 -49 -8 -1 6 0
24 1 39 2 29 -15 46 -24 23 -3 -8 -12 -12 -20 -9 -8 3 -17 1 -21 -5 -3 -7 0
-8 9 -5 11 4 16 0 16 -12 1 -16 3 -15 15 6 8 14 14 20 15 14 0 -5 -6 -19 -14
-29 -12 -17 -16 -18 -32 -5 -10 8 -15 11 -12 5 4 -6 -9 -10 -31 -11 -20 -1
-28 1 -18 3 9 3 15 8 12 13 -3 5 0 12 6 16 8 4 9 3 5 -4 -4 -7 -2 -12 3 -12 6
0 11 7 11 15 0 9 6 18 13 21 15 5 19 34 5 34 -4 0 -8 -6 -8 -14 0 -17 -22 -26
-61 -26 -26 0 -29 3 -30 33 -1 30 -1 31 -9 7 -4 -14 -8 -19 -9 -12 -1 7 -5 10
-11 7 -6 -3 -10 -1 -10 4 0 6 -22 11 -51 11 -31 0 -48 -4 -44 -10 8 -13 -21
-13 -43 -1 -10 5 -44 11 -77 12 -56 2 -60 1 -57 -18 2 -14 -4 -22 -18 -26 -11
-3 -18 -1 -14 4 3 5 0 9 -7 9 -7 0 -4 6 7 14 18 14 18 15 1 21 -10 4 -30 8
-45 9 -15 1 -37 7 -49 14 -38 21 -26 8 42 -47 35 -29 69 -50 75 -46 6 4 10 3
9 -2 -4 -22 3 -23 20 -2 10 13 16 29 14 36 -7 17 19 17 36 0 11 -9 14 -9 18 1
3 6 16 12 29 12 14 0 22 -4 19 -10 -3 -5 -15 -10 -26 -10 -13 0 -19 -7 -19
-21 0 -18 -4 -20 -25 -15 -30 8 -34 -13 -8 -39 15 -16 18 -16 28 -1 7 9 16 16
21 16 4 0 3 -5 -4 -12 -18 -18 -15 -23 19 -24 16 -1 36 -7 42 -13 9 -9 8 -11
-8 -5 l-20 6 20 -14 c19 -13 135 -50 197 -63 15 -3 38 0 51 6 16 7 33 7 58 0
l34 -10 -41 5 c-26 3 -45 1 -49 -6 -5 -8 32 -10 141 -7 82 3 163 7 179 10 134
22 237 60 345 128 36 22 77 48 92 57 16 9 28 22 28 29 0 6 6 13 13 16 6 2 9 8
4 12 -4 5 -19 -2 -33 -16 -21 -20 -27 -21 -34 -9 -5 8 -10 26 -10 40 0 22 4
25 37 26 l37 1 -32 -15 c-29 -14 -45 -42 -24 -42 15 0 62 45 62 59 0 16 32 10
38 -8 3 -8 0 -11 -5 -8 -15 10 -39 -11 -27 -23 12 -12 75 45 136 126 39 53 43
79 10 67 -21 -9 -51 -44 -52 -60 0 -25 -26 -12 -38 19 -13 35 -21 34 -24 -3
-2 -26 -23 -34 -65 -24 -39 9 -28 85 11 85 27 0 76 -22 76 -34 0 -5 7 -2 17 5
9 8 23 14 32 15 48 3 51 5 51 29 0 13 13 37 29 54 17 17 33 49 41 79 6 28 20
58 31 68 24 21 29 17 22 -19 -4 -22 -8 -25 -19 -16 -17 14 -18 5 -3 -23 11
-20 13 -18 34 28 39 86 48 142 48 299 0 143 1 145 7 50 l6 -100 2 112 c1 61
-2 114 -7 117 -5 3 -11 17 -13 31 -3 15 -1 22 5 18 6 -4 8 0 4 10 -3 8 -9 33
-13 54 -4 21 -12 47 -18 58 -6 11 -12 31 -13 44 -9 93 -228 415 -289 426 -11
1 -18 8 -17 13 2 6 -19 26 -45 44 -26 17 -41 24 -33 15z m51 -48 c0 -6 -4 -7
-10 -4 -5 3 -10 11 -10 16 0 6 5 7 10 4 6 -3 10 -11 10 -16z m20 -45 c0 -8 -4
-12 -10 -9 -5 3 -10 10 -10 16 0 5 5 9 10 9 6 0 10 -7 10 -16z m21 -11 c-12
-20 -14 -14 -5 12 4 9 9 14 11 11 3 -2 0 -13 -6 -23z m89 -76 c-4 -4 -15 -5
-24 -1 -14 5 -15 9 -5 15 10 6 9 10 -5 15 -11 4 -21 2 -26 -6 -5 -8 -9 -9 -14
-1 -4 6 -2 11 4 11 6 0 8 10 4 28 -7 26 -6 26 32 -13 22 -22 37 -44 34 -48z
m20 -26 c0 -13 -12 -20 -26 -14 -20 8 -17 19 6 20 11 1 20 -2 20 -6z m30 -31
c0 -5 -2 -10 -4 -10 -3 0 -8 5 -11 10 -3 6 -1 10 4 10 6 0 11 -4 11 -10z m-40
-15 c7 -8 21 -15 31 -15 14 0 19 -7 19 -27 0 -21 3 -24 9 -14 6 9 6 22 -1 34
-5 10 -7 21 -5 24 3 2 10 -4 16 -16 8 -14 8 -27 0 -44 -12 -27 -39 -32 -39 -7
0 21 -20 40 -42 40 -11 0 -18 7 -18 20 0 24 13 26 30 5z m-39 -50 c10 7 10
-26 -1 -70 -7 -28 -8 -27 -10 15 l-3 45 -7 -35 c-6 -30 -8 -31 -9 -9 0 15 2
42 6 60 6 28 8 30 11 11 2 -12 8 -20 13 -17z m147 -26 c8 -12 9 -18 3 -14 -6
3 -11 2 -11 -4 0 -5 6 -12 13 -14 9 -4 9 -6 -1 -6 -7 -1 -15 6 -18 14 -4 8
-10 13 -14 10 -5 -3 -6 4 -3 15 7 26 15 25 31 -1z m38 -85 c-3 -8 -2 -12 4 -9
11 7 14 -28 3 -38 -3 -4 -12 2 -20 12 -14 20 -8 51 9 51 6 0 7 -7 4 -16z
m-205 -21 c-12 -20 -14 -14 -5 12 4 9 9 14 11 11 3 -2 0 -13 -6 -23z m26 -30
c-3 -10 -5 -4 -5 12 0 17 2 24 5 18 2 -7 2 -21 0 -30z m143 -34 c0 -5 -9 -9
-20 -9 -19 0 -27 20 -13 33 7 8 33 -11 33 -24z m65 21 c3 -5 1 -10 -4 -10 -6
0 -11 5 -11 10 0 6 2 10 4 10 3 0 8 -4 11 -10z m6 -24 c7 4 4 -5 -7 -19 -18
-25 -37 -32 -34 -12 1 6 6 9 11 8 5 -2 9 2 9 7 0 6 -4 10 -9 10 -5 0 -12 8
-15 17 -6 15 -5 15 13 -1 11 -10 25 -15 32 -10z m-217 -44 c4 -29 3 -41 -4
-37 -5 3 -10 25 -10 47 0 51 5 47 14 -10z m239 -22 c3 -11 1 -20 -4 -20 -5 0
-9 2 -9 4 0 2 -3 11 -6 20 -3 9 -2 16 4 16 5 0 12 -9 15 -20z m-38 -10 c3 -5
1 -10 -4 -10 -6 0 -11 5 -11 10 0 6 2 10 4 10 3 0 8 -4 11 -10z m-202 -85 c4
-31 3 -41 -2 -25 -13 42 -22 107 -12 90 4 -8 11 -37 14 -65z m11 -72 c22 28
27 20 24 -35 -3 -47 -6 -53 -27 -56 -35 -5 -47 12 -30 44 11 21 11 28 2 31 -7
3 -13 12 -13 21 1 14 3 14 16 -3 14 -19 16 -19 28 -2z m243 -5 c-3 -8 -6 -5
-6 6 -1 11 2 17 5 13 3 -3 4 -12 1 -19z m0 -130 c-2 -24 -4 -7 -4 37 0 44 2
63 4 43 2 -21 2 -57 0 -80z m-328 -45 c0 -25 -1 -25 -8 -8 -5 11 -7 23 -4 28
8 14 13 7 12 -20z m1 -64 c0 -5 -4 -9 -10 -9 -5 0 -10 7 -10 16 0 8 5 12 10 9
6 -3 10 -10 10 -16z m327 -51 c-3 -7 -5 -2 -5 12 0 14 2 19 5 13 2 -7 2 -19 0
-25z m-331 -67 c-1 -22 -5 -25 -40 -24 -38 0 -70 25 -41 31 9 2 13 7 11 10 -2
4 13 7 33 7 34 0 38 -2 37 -24z m-114 -33 c-7 -7 -12 -8 -12 -2 0 14 12 26 19
19 2 -3 -1 -11 -7 -17z m-32 -28 c0 -5 -2 -10 -4 -10 -3 0 -8 5 -11 10 -3 6
-1 10 4 10 6 0 11 -4 11 -10z m360 -6 c0 -9 -5 -14 -12 -12 -18 6 -21 28 -4
28 9 0 16 -7 16 -16z m-135 -15 c-4 -5 -12 -9 -18 -8 -9 0 -8 2 1 6 6 2 9 10
6 15 -4 7 -2 8 5 4 6 -4 9 -12 6 -17z m-75 -95 c0 -2 -7 -4 -15 -4 -8 0 -15 4
-15 10 0 5 7 7 15 4 8 -4 15 -8 15 -10z m163 -50 c-3 -8 -12 -13 -20 -10 -8 3
-19 6 -24 6 -5 0 -9 5 -9 10 0 6 13 10 30 10 22 0 28 -4 23 -16z m-96 -10 c-3
-3 -12 -4 -19 -1 -8 3 -5 6 6 6 11 1 17 -2 13 -5z m-13 -29 c11 -8 16 -18 12
-22 -4 -5 -13 0 -20 9 -6 9 -25 18 -41 21 l-30 4 30 1 c17 1 39 -5 49 -13z
m-84 1 c0 -2 -7 -6 -15 -10 -8 -3 -15 -1 -15 4 0 6 7 10 15 10 8 0 15 -2 15
-4z m175 -76 c-10 -11 -20 -18 -23 -15 -7 6 18 35 31 35 5 0 2 -9 -8 -20z
m-35 -49 c-11 -21 -30 -37 -30 -25 0 8 30 44 37 44 2 0 -1 -9 -7 -19z m-506
-7 c10 -10 16 -32 15 -62 -1 -43 -1 -45 -11 -19 -5 15 -14 27 -20 27 -6 0 -5
6 2 15 10 12 10 19 2 27 -12 12 -16 28 -8 28 3 0 12 -7 20 -16z m-877 -131 c0
-9 -4 -10 -14 -2 -7 6 -13 12 -13 14 0 1 6 2 13 2 8 0 14 -6 14 -14z m943 -13
c0 -5 -5 -10 -11 -10 -5 0 -7 5 -4 10 3 6 8 10 11 10 2 0 4 -4 4 -10z m118
-13 c3 -14 -1 -18 -20 -15 -12 2 -24 11 -26 21 -3 14 1 18 20 15 12 -2 24 -11
26 -21z m67 13 c3 -5 1 -10 -4 -10 -6 0 -11 5 -11 10 0 6 2 10 4 10 3 0 8 -4
11 -10z m-755 -43 c0 -5 -9 -2 -20 8 -20 19 -29 8 -9 -12 8 -8 8 -13 0 -17 -6
-4 -11 -1 -11 6 0 9 -3 9 -10 -2 -6 -9 -10 -10 -10 -3 0 17 -59 -1 -75 -23 -9
-13 -16 -14 -31 -6 -18 11 -18 11 4 12 12 0 22 3 22 8 0 13 69 54 79 47 6 -3
11 1 11 10 0 14 2 14 25 -1 14 -9 25 -21 25 -27z m835 33 c-4 -6 -11 -8 -16
-5 -5 4 -9 2 -9 -3 0 -4 -18 -20 -40 -34 -33 -22 -41 -24 -51 -12 -9 11 -7 14
14 14 14 0 29 5 32 10 3 6 1 10 -6 10 -18 0 1 17 26 23 36 8 56 7 50 -3z
m-800 -30 c3 -5 -1 -10 -10 -10 -9 0 -13 5 -10 10 3 6 8 10 10 10 2 0 7 -4 10
-10z m312 -15 c0 -8 -4 -15 -9 -15 -4 0 -8 7 -8 15 0 8 4 15 8 15 5 0 9 -7 9
-15z m260 -14 c0 -11 -6 -17 -14 -14 -18 7 -17 33 1 33 8 0 14 -8 13 -19z m87
-20 c15 -1 0 -11 -23 -16 -12 -2 -29 -1 -38 2 -14 6 -14 7 3 13 10 4 26 6 34
4 8 -1 19 -3 24 -3z m-122 -23 c2 -16 9 -22 21 -20 21 4 23 -4 2 -12 -17 -6
-45 19 -45 40 0 23 18 16 22 -8z m-442 -18 c10 -18 7 -20 -22 -21 l-33 -2 35
-7 c19 -4 30 -8 24 -9 -6 0 -26 -4 -44 -8 -24 -4 -31 -3 -26 5 9 15 5 15 -31
2 -26 -9 -27 -9 -9 5 11 8 25 15 31 15 6 0 18 9 28 20 9 11 21 20 27 20 5 0
14 -9 20 -20z m140 0 c0 -14 -9 -21 -34 -26 -19 -3 -41 -4 -48 -1 -7 3 -1 6
13 6 18 1 28 8 32 21 7 26 37 26 37 0z m46 -17 c-11 -11 -19 6 -11 24 8 17 8
17 12 0 3 -10 2 -21 -1 -24z m64 11 c0 -8 -4 -14 -10 -14 -5 0 -10 9 -10 21 0
11 5 17 10 14 6 -3 10 -13 10 -21z m-402 -1 c2 -8 -5 -13 -17 -13 -21 0 -35
13 -24 24 10 10 36 3 41 -11z m482 -4 c0 -5 -6 -9 -14 -9 -8 0 -21 -3 -29 -6
-12 -4 -14 0 -11 14 4 14 12 18 30 14 13 -2 24 -8 24 -13z m60 -19 c12 -8 10
-10 -10 -10 -14 1 -41 -2 -60 -4 l-35 -5 40 14 c50 17 47 17 65 5z m-527 -7
c-7 -2 -19 -2 -25 0 -7 3 -2 5 12 5 14 0 19 -2 13 -5z m387 -3 c-12 -8 -12
-10 5 -11 11 0 15 -3 8 -5 -6 -3 -31 2 -55 10 l-43 15 50 0 c36 1 46 -2 35 -9z
m-167 -7 c-7 -2 -19 -2 -25 0 -7 3 -2 5 12 5 14 0 19 -2 13 -5z m77 3 c0 -2
-7 -6 -15 -10 -8 -3 -15 -1 -15 4 0 6 7 10 15 10 8 0 15 -2 15 -4z"/>
<path d="M1695 850 c-4 -6 7 -10 25 -10 18 0 29 4 25 10 -3 6 -15 10 -25 10
-10 0 -22 -4 -25 -10z"/>
<path d="M1630 1940 c-9 -6 -10 -10 -3 -10 6 0 15 5 18 10 8 12 4 12 -15 0z"/>
<path d="M819 1902 c17 -22 38 -45 48 -53 10 -8 -2 10 -26 39 -51 60 -68 71
-22 14z"/>
<path d="M922 1930 c0 -8 8 -37 18 -65 10 -27 18 -43 18 -35 0 8 -8 38 -18 65
-10 28 -18 43 -18 35z"/>
<path d="M700 1903 c57 -33 56 -31 43 -44 -14 -14 -5 -46 14 -53 8 -3 23 -1
34 5 44 23 103 -18 100 -71 0 -10 1 -11 5 -2 9 20 48 14 63 -9 11 -18 15 -19
23 -8 8 11 9 10 4 -4 -3 -10 1 -25 9 -33 19 -19 10 -70 -19 -104 -20 -24 -19
-23 9 2 24 21 34 25 48 17 11 -7 16 -17 12 -29 -3 -9 2 -38 10 -64 16 -45 10
-91 -6 -50 -6 15 -8 12 -8 -13 -1 -27 -7 -36 -38 -52 -21 -11 -34 -20 -30 -21
4 0 21 7 37 15 29 15 30 15 30 -10 0 -14 -7 -42 -15 -62 -8 -20 -13 -38 -10
-41 3 -3 5 0 5 7 0 7 5 9 13 5 6 -4 9 -4 5 1 -4 4 -3 14 3 21 6 7 11 33 11 58
1 34 4 41 13 32 7 -6 10 -17 7 -24 -2 -8 7 -3 22 11 14 13 26 32 26 41 0 17
-30 55 -30 39 0 -4 -6 1 -12 12 -6 11 -13 58 -14 105 -1 47 -2 88 -3 91 -1 3
-12 4 -25 2 -22 -5 -26 1 -40 51 -17 57 -32 79 -20 29 7 -25 6 -27 -9 -15 -9
8 -17 28 -19 45 -3 30 -5 32 -45 32 -23 0 -47 5 -54 12 -6 6 -19 9 -28 6 -9
-4 -13 -2 -8 2 10 11 -22 45 -42 45 -9 0 -34 11 -56 25 -22 13 -44 24 -50 25
-5 0 10 -12 35 -27z"/>
<path d="M1646 1922 c-7 -11 15 -82 25 -82 4 0 1 16 -7 35 -8 20 -12 40 -9 45
4 6 4 10 1 10 -3 0 -7 -4 -10 -8z"/>
<path d="M432 1878 c-44 -65 -83 -128 -78 -128 2 0 26 33 53 73 61 90 65 97
59 97 -3 0 -18 -19 -34 -42z"/>
<path d="M1064 1785 c0 -49 1 -71 3 -48 2 23 2 64 0 90 -2 26 -3 8 -3 -42z"/>
<path d="M1686 1800 c3 -14 11 -32 16 -40 6 -10 7 -7 2 10 -3 14 -11 32 -16
40 -6 10 -7 7 -2 -10z"/>
<path d="M1217 1755 c-24 -50 -20 -58 4 -12 11 22 19 41 17 43 -3 2 -12 -12
-21 -31z"/>
<path d="M1296 1750 c4 -14 13 -38 20 -55 11 -24 13 -25 8 -5 -4 14 -13 39
-20 55 -11 24 -13 25 -8 5z"/>
<path d="M289 1733 c-3 -18 3 -47 13 -57 5 -6 32 -49 59 -96 27 -47 48 -80 48
-75 0 6 -19 44 -43 85 -42 73 -43 74 -23 90 29 24 15 60 -24 60 -16 0 -30 -3
-30 -7z"/>
<path d="M763 1670 c0 -41 2 -58 4 -37 2 20 2 54 0 75 -2 20 -4 3 -4 -38z"/>
<path d="M1722 1658 c12 -56 19 -129 20 -223 l2 -140 3 113 c2 63 8 112 13
112 6 0 10 8 10 18 0 14 -2 15 -10 2 -8 -13 -10 -12 -10 4 0 36 -33 196 -40
196 -4 0 2 -37 12 -82z"/>
<path d="M862 1675 c-30 -62 -27 -71 4 -12 14 27 24 51 22 53 -3 2 -14 -17
-26 -41z"/>
<path d="M1161 1629 c-17 -40 -30 -74 -28 -76 2 -2 18 29 36 68 17 40 30 74
28 76 -2 2 -18 -29 -36 -68z"/>
<path d="M242 1640 c0 -19 2 -27 5 -17 2 9 2 25 0 35 -3 9 -5 1 -5 -18z"/>
<path d="M812 1565 c-30 -62 -27 -71 4 -12 14 27 24 51 22 53 -3 2 -14 -17
-26 -41z"/>
<path d="M252 1570 c0 -19 2 -27 5 -17 2 9 2 25 0 35 -3 9 -5 1 -5 -18z"/>
<path d="M1443 1520 c0 -30 2 -43 4 -27 2 15 2 39 0 55 -2 15 -4 2 -4 -28z"/>
<path d="M936 1543 c-6 -14 -5 -15 5 -6 7 7 10 15 7 18 -3 3 -9 -2 -12 -12z"/>
<path d="M751 1514 c0 -18 -8 -34 -16 -38 -17 -6 -20 -37 -6 -51 16 -17 -27
-102 -55 -109 -17 -5 -24 -13 -24 -30 0 -27 -57 -76 -109 -94 -33 -12 -36 -11
-95 39 l-61 51 58 -54 c56 -53 57 -54 35 -65 -134 -62 -141 -64 -151 -54 -16
16 -47 13 -53 -4 -5 -11 -17 -14 -48 -10 l-41 5 43 -11 c23 -6 42 -16 42 -23
0 -15 27 -25 48 -19 6 3 12 11 12 18 0 25 20 27 86 5 36 -12 67 -20 70 -18 2
3 -24 13 -57 23 l-62 19 64 22 c37 12 68 18 74 13 33 -31 82 13 53 48 -10 14
-10 15 0 9 8 -5 20 -2 30 7 9 8 31 22 47 30 17 9 23 16 15 17 -13 0 -13 1 0
10 20 13 33 13 25 0 -9 -15 6 -11 45 11 19 11 28 18 19 15 -12 -3 -18 3 -22
20 -3 19 13 41 92 121 l96 98 -92 -90 c-51 -49 -93 -87 -93 -84 0 16 32 80 37
75 10 -10 33 15 33 35 0 10 -6 22 -14 26 -8 4 -16 22 -19 38 l-4 30 -2 -31z
m-306 -384 c-27 -12 -43 -12 -25 0 8 5 22 9 30 9 10 0 8 -3 -5 -9z"/>
<path d="M1112 1515 c-17 -37 -14 -45 4 -12 9 16 14 31 11 33 -2 2 -9 -7 -15
-21z"/>
<path d="M1272 1479 c-34 -34 -61 -63 -59 -65 2 -2 32 26 67 61 82 82 76 85
-8 4z"/>
<path d="M1352 1510 c0 -19 2 -27 5 -17 2 9 2 25 0 35 -3 9 -5 1 -5 -18z"/>
<path d="M261 1493 c-1 -38 -15 -44 -65 -27 -21 8 -44 14 -50 14 -19 -1 27
-24 53 -26 23 -3 41 -19 41 -38 0 -5 -10 -1 -22 10 -13 10 -10 4 7 -14 16 -18
31 -28 33 -22 2 5 12 10 22 10 10 0 21 7 24 16 5 14 18 16 75 12 82 -6 96 0
87 36 -9 35 -52 36 -67 3 -8 -18 -18 -23 -47 -22 -51 2 -80 20 -85 52 -4 27
-4 27 -6 -4z"/>
<path d="M1352 1359 l-2 -115 -32 -18 c-30 -15 -21 -15 17 0 12 5 15 -14 18
-118 l3 -123 2 127 2 128 39 19 c44 23 53 19 46 -18 -5 -24 -5 -24 4 -4 5 12
19 24 30 28 30 9 28 52 -2 66 -21 9 -23 17 -22 62 l3 52 -7 -45 -6 -45 -13 43
c-7 24 -16 42 -18 39 -3 -2 4 -28 15 -56 10 -28 15 -54 10 -57 -5 -3 -9 -13
-9 -23 0 -10 -15 -24 -35 -34 l-34 -16 -4 112 -3 112 -2 -116z"/>
<path d="M538 1443 c29 -2 74 -2 100 0 26 2 2 3 -53 3 -55 0 -76 -1 -47 -3z"/>
<path d="M346 1406 c50 -22 82 -27 39 -7 -22 11 -47 20 -55 20 -8 0 -1 -6 16
-13z"/>
<path d="M120 1403 c0 -6 9 -21 21 -34 l20 -24 -17 30 c-24 39 -24 40 -24 28z"/>
<path d="M292 1355 c15 -16 29 -27 31 -24 3 2 -10 15 -27 28 l-31 24 27 -28z"/>
<path d="M1120 1320 c-37 -41 -57 -56 -62 -47 -5 8 -8 5 -8 -8 0 -17 -2 -17
-10 -5 -8 12 -10 10 -10 -11 0 -14 -11 -36 -25 -49 -29 -27 -31 -21 -9 21 8
17 13 33 11 35 -3 3 -13 -15 -23 -40 l-19 -46 -65 -2 -65 -2 64 -3 64 -4 -34
-37 c-19 -20 -24 -28 -11 -18 12 11 22 15 22 10 0 -5 9 6 20 24 17 27 23 32
35 22 12 -10 12 -16 -1 -38 l-16 -27 20 23 c11 12 30 22 41 22 27 0 38 26 23
51 -20 31 -15 41 55 111 37 37 65 70 62 72 -3 3 -29 -21 -59 -54z"/>
<path d="M910 1350 c-8 -5 -10 -10 -5 -10 6 0 17 5 25 10 8 5 11 10 5 10 -5 0
-17 -5 -25 -10z"/>
<path d="M160 1336 c0 -11 30 -66 36 -66 2 0 -3 15 -12 33 -19 36 -24 44 -24
33z"/>
<path d="M850 1325 c-14 -8 -20 -14 -15 -14 6 0 21 6 35 14 14 8 21 14 15 14
-5 0 -21 -6 -35 -14z"/>
<path d="M1058 1317 c-3 -19 -2 -25 4 -19 6 6 8 18 6 28 -3 14 -5 12 -10 -9z"/>
<path d="M355 1300 c10 -11 20 -20 23 -20 3 0 -3 9 -13 20 -10 11 -20 20 -23
20 -3 0 3 -9 13 -20z"/>
<path d="M770 1290 c-9 -6 -10 -10 -3 -10 6 0 15 5 18 10 8 12 4 12 -15 0z"/>
<path d="M1717 1212 c-10 -42 -21 -86 -23 -97 -4 -15 -3 -17 4 -5 12 20 45
156 40 170 -1 5 -11 -25 -21 -68z"/>
<path d="M215 1230 c9 -16 18 -30 21 -30 2 0 -2 14 -11 30 -9 17 -18 30 -21
30 -2 0 2 -13 11 -30z"/>
<path d="M1228 1189 c-21 -11 -38 -22 -38 -24 0 -5 79 32 89 41 12 11 -18 1
-51 -17z"/>
<path d="M1411 1139 c-12 -39 -21 -72 -19 -75 2 -2 14 28 27 67 12 39 21 72
19 75 -2 2 -14 -28 -27 -67z"/>
<path d="M240 1187 c0 -5 5 -18 11 -29 10 -19 9 -20 -23 -15 -18 3 -44 8 -58
12 l-25 7 26 -15 c37 -20 86 -26 149 -17 l55 7 -50 2 c-43 1 -53 5 -67 29 -10
15 -18 23 -18 19z"/>
<path d="M658 1153 c23 -2 61 -2 85 0 23 2 4 4 -43 4 -47 0 -66 -2 -42 -4z"/>
<path d="M1090 1120 c-41 -21 -70 -39 -65 -39 6 0 44 18 85 39 41 21 71 39 65
39 -5 0 -44 -18 -85 -39z"/>
<path d="M80 1119 c0 -6 9 -8 21 -4 12 4 19 3 16 -1 -2 -5 10 -16 28 -25 31
-15 32 -15 22 3 -7 10 -19 19 -27 19 -8 1 -1 5 15 9 26 7 22 8 -22 9 -32 1
-53 -3 -53 -10z"/>
<path d="M916 1060 c-9 -22 -21 -40 -27 -40 -5 0 -7 -5 -3 -12 5 -7 11 -5 21
7 7 11 13 14 13 9 0 -13 -36 -44 -72 -63 -33 -17 -57 -5 -31 15 10 7 14 14 8
14 -5 0 11 21 35 47 25 26 34 39 21 28 -14 -11 -40 -37 -60 -58 -31 -34 -39
-38 -68 -34 -33 6 -33 5 -13 -11 20 -17 19 -18 -51 -94 -78 -85 -108 -97 -158
-61 -23 15 -23 17 -6 30 11 7 14 13 9 13 -6 0 -15 -5 -21 -11 -9 -9 -34 6 -99
57 -48 37 -85 63 -81 57 4 -6 38 -35 77 -64 38 -30 70 -56 70 -59 0 -12 -230
-119 -235 -110 -3 6 -14 10 -25 10 -12 0 -33 26 -64 78 -25 42 -46 72 -46 67
0 -6 20 -42 43 -80 32 -50 42 -76 37 -90 -11 -30 -1 -45 30 -45 20 0 31 6 35
20 4 13 16 20 33 21 21 0 23 2 9 7 -13 6 10 21 91 61 l109 54 26 -19 c15 -10
27 -29 27 -40 0 -47 63 -60 68 -14 2 20 23 38 97 83 52 32 95 61 95 63 0 6 -3
4 -88 -49 -35 -22 -65 -38 -66 -36 -2 2 24 35 58 73 56 62 66 68 90 62 20 -5
26 -11 21 -25 -5 -15 0 -18 32 -17 35 1 38 3 38 31 0 34 48 115 68 115 7 0 22
7 33 16 18 15 18 15 -3 5 -29 -15 -37 -14 -27 2 5 7 -1 2 -13 -12 -25 -29 -40
-23 -23 9 6 12 10 24 7 26 -2 3 -12 -13 -21 -36z"/>
<path d="M1678 1075 c-3 -11 -9 -29 -13 -40 -3 -11 1 -7 10 8 9 16 15 33 12
40 -2 6 -6 3 -9 -8z"/>
<path d="M190 1066 c0 -2 8 -10 18 -17 15 -13 16 -12 3 4 -13 16 -21 21 -21
13z"/>
<path d="M515 1040 c27 -12 43 -12 25 0 -8 5 -22 9 -30 9 -10 0 -8 -3 5 -9z"/>
<path d="M1376 1024 c-4 -14 -5 -28 -3 -31 3 -2 8 8 11 23 4 14 5 28 3 31 -3
2 -8 -8 -11 -23z"/>
<path d="M233 1033 c9 -14 87 -77 87 -70 0 3 -21 22 -47 43 -26 21 -44 33 -40
27z"/>
<path d="M568 1023 c7 -3 16 -2 19 1 4 3 -2 6 -13 5 -11 0 -14 -3 -6 -6z"/>
<path d="M655 995 c17 -8 37 -14 45 -14 8 0 -1 7 -20 14 -46 18 -64 17 -25 0z"/>
<path d="M1636 981 c-13 -25 -14 -29 -2 -25 8 3 17 15 20 27 8 33 -1 32 -18
-2z"/>
<path d="M1337 962 c-35 -39 -10 -85 34 -62 22 12 23 20 7 55 -13 30 -20 31
-41 7z"/>
<path d="M687 925 c-55 -26 -75 -41 -34 -26 38 15 87 41 87 46 0 6 4 8 -53
-20z"/>
<path d="M1595 903 c-11 -21 -21 -41 -23 -45 -2 -5 1 -8 7 -8 6 0 10 3 9 8 -3
14 25 61 33 56 5 -3 6 2 3 10 -8 21 -7 22 -29 -21z"/>
<path d="M555 860 c-3 -6 1 -7 9 -4 18 7 21 14 7 14 -6 0 -13 -4 -16 -10z"/>
<path d="M1540 825 c-8 -9 -8 -15 -2 -15 12 0 26 19 19 26 -2 2 -10 -2 -17
-11z"/>
<path d="M1747 779 c-4 -16 -1 -20 15 -17 12 2 24 10 26 18 5 13 3 13 -13 0
-10 -8 -16 -10 -12 -3 4 6 3 14 -2 17 -5 3 -11 -3 -14 -15z"/>
<path d="M485 743 l-50 -13 50 6 c28 3 52 8 54 10 11 10 -8 9 -54 -3z"/>
<path d="M1473 734 c-3 -8 0 -21 7 -27 10 -9 11 -9 6 1 -4 7 -1 15 8 18 9 3
13 10 10 15 -8 14 -24 11 -31 -7z"/>
<path d="M1575 741 c-3 -6 -1 -11 5 -11 7 0 10 -7 6 -15 -3 -8 -1 -15 4 -15 6
0 10 7 10 15 0 8 0 18 1 22 1 12 -19 15 -26 4z"/>
<path d="M1670 742 c0 -5 7 -9 15 -9 8 0 15 4 15 9 0 4 -7 8 -15 8 -8 0 -15
-4 -15 -8z"/>
<path d="M1776 742 c-3 -5 1 -9 9 -9 8 0 12 4 9 9 -3 4 -7 8 -9 8 -2 0 -6 -4
-9 -8z"/>
<path d="M2000 718 c0 -15 -5 -39 -12 -55 -6 -15 -10 -34 -9 -41 1 -8 -5 -12
-16 -10 -13 2 -17 -3 -16 -17 1 -11 -3 -23 -9 -26 -6 -4 -7 -9 0 -13 9 -5 59
60 64 86 2 7 9 19 16 26 6 7 12 19 12 25 0 7 -5 6 -11 -3 -9 -12 -10 -11 -6 6
2 12 1 28 -4 35 -6 10 -9 6 -9 -13z"/>
<path d="M350 720 c-34 -7 -34 -7 -5 -8 17 0 41 4 55 8 33 11 0 11 -50 0z"/>
<path d="M1676 723 c-11 -11 -7 -20 9 -20 8 0 15 4 15 8 0 11 -16 20 -24 12z"/>
<path d="M1441 704 c0 -11 3 -14 6 -6 3 7 2 16 -1 19 -3 4 -6 -2 -5 -13z"/>
<path d="M1788 703 c12 -2 22 -8 22 -13 0 -5 7 -7 16 -3 22 8 -2 23 -36 21
-23 -1 -24 -1 -2 -5z"/>
<path d="M1496 664 c-5 -14 -4 -15 9 -4 17 14 19 20 6 20 -5 0 -12 -7 -15 -16z"/>
<path d="M1380 645 c-19 -22 -8 -25 13 -3 9 10 13 18 8 18 -5 0 -14 -7 -21
-15z"/>
<path d="M1343 616 c-9 -11 -9 -15 0 -19 7 -3 14 3 14 14 2 22 2 22 -14 5z"/>
<path d="M1390 586 c0 -11 8 -15 25 -14 30 3 28 22 -3 26 -15 2 -22 -2 -22
-12z"/>
<path d="M1268 564 c-21 -15 -35 -31 -32 -36 3 -5 16 2 28 16 12 15 27 26 33
26 7 0 15 5 18 10 11 18 -9 11 -47 -16z"/>
<path d="M1401 529 c7 -14 6 -19 -2 -19 -7 0 -10 -3 -6 -6 3 -3 14 -1 24 5 14
8 14 10 3 11 -12 0 -12 2 -2 9 11 6 9 10 -7 14 -18 4 -19 2 -10 -14z"/>
<path d="M1493 530 c3 -21 17 -40 17 -22 0 5 3 17 6 26 4 11 1 16 -10 16 -10
0 -15 -7 -13 -20z"/>
<path d="M1740 542 c0 -5 7 -9 15 -9 8 0 15 4 15 9 0 4 -7 8 -15 8 -8 0 -15
-4 -15 -8z"/>
<path d="M1846 535 c-13 -10 -16 -19 -10 -25 5 -5 13 0 21 16 6 13 10 24 10
24 -1 0 -11 -7 -21 -15z"/>
<path d="M1308 529 c-19 -11 -24 -29 -8 -29 5 0 14 9 20 20 12 23 12 23 -12 9z"/>
<path d="M1745 519 c-10 -15 3 -25 16 -12 7 7 7 13 1 17 -6 3 -14 1 -17 -5z"/>
<path d="M1185 510 c-3 -5 -1 -10 4 -10 6 0 11 5 11 10 0 6 -2 10 -4 10 -3 0
-8 -4 -11 -10z"/>
<path d="M1081 454 c0 -11 3 -14 6 -6 3 7 2 16 -1 19 -3 4 -6 -2 -5 -13z"/>
<path d="M1050 449 c0 -5 5 -7 10 -4 6 3 10 8 10 11 0 2 -4 4 -10 4 -5 0 -10
-5 -10 -11z"/>
<path d="M1185 451 c-11 -19 45 -84 60 -70 3 3 2 20 -1 36 -4 22 -13 32 -30
36 -14 2 -26 1 -29 -2z"/>
<path d="M349 433 c15 -29 28 -36 47 -25 11 6 13 11 5 16 -6 4 -11 2 -11 -5 0
-7 -12 -2 -26 12 -25 23 -26 23 -15 2z"/>
<path d="M1160 430 c0 -5 5 -10 11 -10 5 0 7 5 4 10 -3 6 -8 10 -11 10 -2 0
-4 -4 -4 -10z"/>
<path d="M951 416 c-8 -10 -9 -16 -1 -21 5 -3 10 -1 10 5 0 6 10 15 23 20 22
9 22 9 1 9 -12 1 -27 -5 -33 -13z"/>
<path d="M1080 410 c-24 -9 -46 -24 -48 -31 -4 -11 -2 -11 8 -2 10 10 20 8 43
-9 25 -18 30 -19 24 -5 -4 12 -1 17 11 17 15 1 14 2 -3 12 -19 11 -18 12 10
24 46 20 6 14 -45 -6z m15 -20 c3 -5 1 -10 -4 -10 -6 0 -11 5 -11 10 0 6 2 10
4 10 3 0 8 -4 11 -10z"/>
<path d="M460 400 c8 -5 26 -10 40 -10 20 0 22 2 10 10 -8 5 -26 10 -40 10
-20 0 -22 -2 -10 -10z"/>
<path d="M1146 401 c-4 -7 -5 -15 -2 -18 9 -9 19 4 14 18 -4 11 -6 11 -12 0z"/>
<path d="M544 391 c-13 -13 2 -18 49 -14 38 2 47 1 32 -6 -22 -11 50 -5 120
10 l40 8 -40 -3 c-22 -2 -75 0 -118 3 -43 4 -80 5 -83 2z"/>
<path d="M810 390 c0 -5 7 -7 16 -3 9 3 20 0 25 -8 7 -11 9 -11 9 4 0 12 -8
17 -25 17 -14 0 -25 -4 -25 -10z"/>
<path d="M880 392 c0 -4 9 -8 20 -9 11 -1 18 2 15 8 -7 11 -35 12 -35 1z"/>
<path d="M1190 391 c0 -5 7 -15 17 -22 15 -13 15 -12 4 9 -12 23 -21 28 -21
13z"/>
<path d="M1007 383 c-4 -3 -7 -13 -7 -22 1 -13 3 -13 11 2 11 19 8 33 -4 20z"/>
<path d="M881 337 c-1 -24 2 -28 22 -25 27 4 38 48 12 48 -12 0 -16 -6 -12
-20 3 -11 1 -20 -3 -20 -5 0 -11 10 -13 23 -4 18 -4 17 -6 -6z"/>
<path d="M1035 350 c-3 -5 3 -10 14 -10 12 0 21 -5 21 -11 0 -5 -5 -7 -12 -3
-7 5 -8 3 -3 -5 5 -9 10 -10 18 -2 7 7 6 15 -3 26 -14 17 -26 19 -35 5z"/>
<path d="M1250 345 c14 -17 13 -18 -2 -12 -10 3 -18 3 -18 -2 0 -5 9 -11 21
-14 16 -4 20 -1 17 15 -2 12 -10 24 -18 26 -13 5 -13 3 0 -13z"/>
<path d="M1094 301 c-5 -5 -18 -11 -28 -13 -20 -3 -34 -48 -15 -48 5 0 7 5 4
10 -3 6 0 10 7 10 14 0 52 39 46 46 -3 2 -9 0 -14 -5z"/>
</g>
</svg>
